<svg xmlns="http://www.w3.org/2000/svg" version="1.1" xmlns:xlink="http://www.w3.org/1999/xlink"
     width="165" viewBox="0 0 1000 623">
    <g transform="matrix(1,0,0,1,-0.6060606060606233,0.2522267206477409)">
        <svg viewBox="0 0 396 247" data-background-color="#ffffff" preserveAspectRatio="xMidYMid meet" height="623"
             width="1000" xmlns="http://www.w3.org/2000/svg" xmlns:xlink="http://www.w3.org/1999/xlink">
            <g id="tight-bounds" transform="matrix(1,0,0,1,0.2400000000000091,-0.09999999999999432)">
                <svg viewBox="0 0 395.52 247.2" height="247.2" width="395.52">
                    <g>
                        <svg></svg>
                    </g>
                    <g>
                        <svg viewBox="0 0 395.52 247.2" height="247.2" width="395.52">
                            <g>
                                <path xmlns="http://www.w3.org/2000/svg"
                                      d="M55.039 247.2l26.403-45.732 232.636 0 26.403 45.732zM197.76 0l26.403 45.732-52.806 0z"
                                      fill="#7e22ce" fill-rule="nonzero" stroke="none" stroke-width="1"
                                      stroke-linecap="butt" stroke-linejoin="miter" stroke-miterlimit="10"
                                      stroke-dasharray="" stroke-dashoffset="0" font-family="none" font-weight="none"
                                      font-size="none" text-anchor="none" style="mix-blend-mode: normal"
                                      data-fill-palette-color="tertiary"></path>
                            </g>
                            <g transform="matrix(1,0,0,1,39.41466666666665,67.97999999999999)">
                                <svg viewBox="0 0 316.6906666666667 111.24" height="111.24" width="316.6906666666667">
                                    <g>
                                        <svg viewBox="0 0 316.6906666666667 111.24" height="111.24"
                                             width="316.6906666666667">
                                            <g>
                                                <svg viewBox="0 0 316.6906666666667 111.24" height="111.24"
                                                     width="316.6906666666667">
                                                    <g id="textblocktransform">
                                                        <svg viewBox="0 0 316.6906666666667 111.24" height="111.24"
                                                             width="316.6906666666667" id="textblock">
                                                            <g>
                                                                <svg viewBox="0 0 316.6906666666667 111.24"
                                                                     height="111.24" width="316.6906666666667">
                                                                    <g transform="matrix(1,0,0,1,0,0)">
                                                                        <svg width="316.6906666666667"
                                                                             viewBox="1.149999976158142 -40.5 115.29000091552734 40.5"
                                                                             height="111.24"
                                                                             data-palette-color="#7e22ce">
                                                                            <path
                                                                                d="M15.15 0L10.2 0 1.15-40.5 6.45-40.5 12.85-10.65 18.95-40.5 24.1-40.5 15.15 0ZM34.25 0L28.7 0 28.7-40.5 34.25-40.5 34.25 0ZM46.45 0L40.8 0 40.8-40.5 48.95-40.5Q53-40.5 55.65-39.43 58.3-38.35 59.57-35.98 60.85-33.6 60.85-29.75L60.85-29.75Q60.85-27.4 60.35-25.48 59.85-23.55 58.75-22.23 57.65-20.9 55.84-20.3L55.84-20.3 61.6 0 56.15 0 50.85-19 46.45-19 46.45 0ZM46.45-36.45L46.45-23.05 48.6-23.05Q51-23.05 52.5-23.65 54-24.25 54.7-25.7 55.4-27.15 55.4-29.75L55.4-29.75Q55.4-33.3 54.09-34.88 52.8-36.45 48.95-36.45L48.95-36.45 46.45-36.45ZM76.84 0L71.19 0 71.19-36.3 64.34-36.3 64.34-40.5 83.49-40.5 83.49-36.3 76.84-36.3 76.84 0ZM93.24 0L87.69 0 87.69-40.5 93.24-40.5 93.24 0ZM116.44 0L98.54 0 98.54-4.05 110.44-36.45 99.29-36.45 99.29-40.5 116.44-40.5 116.44-38.05 103.89-4.05 116.44-4.05 116.44 0Z"
                                                                                opacity="1"
                                                                                transform="matrix(1,0,0,1,0,0)"
                                                                                fill="#7e22ce" class="undefined-text-0"
                                                                                data-fill-palette-color="primary"
                                                                                id="text-0"></path>
                                                                        </svg>
                                                                    </g>
                                                                </svg>
                                                            </g>
                                                        </svg>
                                                    </g>
                                                </svg>
                                            </g>
                                        </svg>
                                    </g>
                                </svg>
                            </g>
                        </svg>
                    </g>
                    <defs></defs>
                </svg>
                <rect width="395.52" height="247.2" fill="none" stroke="none" visibility="hidden"></rect>
            </g>
        </svg>
    </g>
</svg>
